<svg width="1000" height="232" viewBox="0 0 1000 232" fill="none" xmlns="http://www.w3.org/2000/svg">
<mask id="mask0_2_52" style="mask-type:luminance" maskUnits="userSpaceOnUse" x="0" y="0" width="175" height="232">
<path d="M174.737 0H0V231.579H174.737V0Z" fill="white"/>
</mask>
<g mask="url(#mask0_2_52)">
<path fill-rule="evenodd" clip-rule="evenodd" d="M173.684 58.9474L60 0V230.526L173.684 174.737V58.9474ZM71.5789 121.053H112.632V192.632L71.5789 211.579V121.053ZM125.263 184.211V121.053H161.053V167.368L125.263 184.211ZM125.263 47.3684L161.053 65.2632V108.421H125.263V47.3684ZM112.632 38.9474L71.5789 18.9474V108.421H112.632V38.9474Z" fill="#3D68FE"/>
<path d="M0 230.526V0L109.474 56.8421L11.5789 21.0526V212.632L109.474 175.789L0 230.526Z" fill="#3D68FE"/>
<path d="M26.3158 124.21C30.3853 124.21 33.6842 120.912 33.6842 116.842C33.6842 112.773 30.3853 109.474 26.3158 109.474C22.2463 109.474 18.9474 112.773 18.9474 116.842C18.9474 120.912 22.2463 124.21 26.3158 124.21Z" fill="#3D68FE"/>
</g>
<path d="M224.387 145.771H203.452L241.568 37.5H265.781L303.952 145.771H283.015L254.097 59.704H253.253L224.387 145.771ZM225.074 103.319H282.171V119.073H225.074V103.319ZM319.084 176.222C316.476 176.222 314.061 176.011 311.842 175.587C309.657 175.2 307.912 174.742 306.608 174.213L311.048 159.305C313.832 160.116 316.318 160.503 318.503 160.468C320.688 160.433 322.608 159.745 324.265 158.406C325.956 157.102 327.383 154.916 328.547 151.851L330.185 147.463L300.739 64.5676H321.04L339.754 125.893H340.6L359.368 64.5676H379.722L347.208 155.604C345.693 159.904 343.684 163.587 341.183 166.653C338.68 169.755 335.613 172.116 331.983 173.737C328.387 175.394 324.088 176.222 319.084 176.222ZM414.006 147.41C408.859 147.41 404.225 146.493 400.101 144.66C396.013 142.792 392.77 140.044 390.375 136.413C388.013 132.783 386.832 128.307 386.832 122.985C386.832 118.404 387.678 114.615 389.371 111.619C391.061 108.623 393.371 106.227 396.295 104.429C399.221 102.632 402.516 101.275 406.181 100.359C409.882 99.4069 413.705 98.7198 417.653 98.2966C422.41 97.8033 426.272 97.3625 429.232 96.9749C432.192 96.552 434.341 95.9177 435.68 95.072C437.055 94.1907 437.743 92.8339 437.743 91.001V90.6838C437.743 86.701 436.562 83.6175 434.2 81.4322C431.84 79.2471 428.438 78.1543 423.998 78.1543C419.309 78.1543 415.592 79.1764 412.842 81.2206C410.128 83.2646 408.297 85.6789 407.345 88.4631L389.476 85.9257C390.884 80.9916 393.21 76.8682 396.455 73.5549C399.697 70.2069 403.661 67.7046 408.349 66.048C413.036 64.3562 418.217 63.5105 423.893 63.5105C427.804 63.5105 431.699 63.9688 435.575 64.8846C439.453 65.801 442.994 67.3166 446.202 69.4316C449.408 71.5107 451.981 74.348 453.92 77.9429C455.893 81.5377 456.88 86.0316 456.88 91.4242V145.771H438.482V134.616H437.848C436.686 136.872 435.046 138.986 432.933 140.96C430.853 142.898 428.227 144.467 425.055 145.665C421.918 146.828 418.236 147.41 414.006 147.41ZM418.975 133.347C422.817 133.347 426.147 132.589 428.966 131.074C431.787 129.523 433.954 127.479 435.469 124.941C437.021 122.404 437.796 119.637 437.796 116.641V107.072C437.196 107.566 436.175 108.024 434.728 108.447C433.32 108.87 431.733 109.24 429.97 109.557C428.208 109.874 426.465 110.156 424.737 110.403C423.011 110.65 421.514 110.861 420.244 111.038C417.389 111.425 414.834 112.06 412.579 112.941C410.322 113.821 408.543 115.055 407.238 116.641C405.935 118.192 405.282 120.201 405.282 122.668C405.282 126.192 406.568 128.853 409.141 130.651C411.716 132.448 414.992 133.347 418.975 133.347ZM495.261 98.1907V145.771H476.124V64.5676H494.415V78.3659H495.366C497.236 73.8196 500.213 70.2069 504.301 67.528C508.425 64.8495 513.518 63.5105 519.581 63.5105C525.183 63.5105 530.065 64.7086 534.223 67.1055C538.419 69.5019 541.661 72.9735 543.952 77.5198C546.278 82.0667 547.423 87.5823 547.387 94.0673V145.771H528.251V97.028C528.251 91.6002 526.84 87.3532 524.021 84.2869C521.236 81.2206 517.377 79.6876 512.442 79.6876C509.095 79.6876 506.116 80.4278 503.509 81.9078C500.937 83.3528 498.909 85.4501 497.429 88.1989C495.983 90.9482 495.261 94.2787 495.261 98.1907ZM677.147 72.0749C676.265 69.2198 675.05 66.6646 673.499 64.4092C671.985 62.1181 670.154 60.1621 668.004 58.5406C665.886 56.9196 663.455 55.7038 660.709 54.8928C657.958 54.0471 654.96 53.6242 651.718 53.6242C645.905 53.6242 640.722 55.0869 636.179 58.0122C631.629 60.9375 628.053 65.2375 625.446 70.9116C622.869 76.5509 621.585 83.4234 621.585 91.5295C621.585 99.7063 622.869 106.632 625.446 112.306C628.019 117.98 631.596 122.298 636.179 125.259C640.76 128.184 646.082 129.647 652.145 129.647C657.64 129.647 662.4 128.589 666.415 126.475C670.467 124.36 673.589 121.364 675.775 117.487C677.958 113.575 679.053 108.993 679.053 103.742L683.495 104.429H654.101V89.0979H698.029V102.103C698.029 111.372 696.057 119.39 692.109 126.157C688.164 132.924 682.733 138.14 675.827 141.806C668.918 145.436 660.989 147.251 652.038 147.251C642.063 147.251 633.303 145.013 625.762 140.537C618.255 136.026 612.387 129.629 608.158 121.347C603.964 113.029 601.867 103.16 601.867 91.7412C601.867 83.0004 603.101 75.1937 605.568 68.3212C608.069 61.4486 611.56 55.6158 616.036 50.8225C620.509 45.9941 625.762 42.3284 631.789 39.8261C637.815 37.2884 644.371 36.0198 651.455 36.0198C657.446 36.0198 663.034 36.9008 668.215 38.6629C673.396 40.3901 677.994 42.857 682.015 46.0644C686.067 49.2718 689.396 53.0779 692.004 57.4838C694.61 61.889 696.322 66.7526 697.133 72.0749H677.147ZM735.29 37.5V145.771H716.152V37.5H735.29ZM778.335 147.41C773.189 147.41 768.554 146.493 764.432 144.66C760.341 142.792 757.099 140.044 754.705 136.413C752.343 132.783 751.16 128.307 751.16 122.985C751.16 118.404 752.008 114.615 753.701 111.619C755.392 108.623 757.699 106.227 760.627 104.429C763.549 102.632 766.846 101.275 770.509 100.359C774.211 99.4069 778.036 98.7198 781.981 98.2966C786.741 97.8033 790.6 97.3625 793.56 96.9749C796.522 96.552 798.672 95.9177 800.013 95.072C801.385 94.1907 802.072 92.8339 802.072 91.001V90.6838C802.072 86.701 800.893 83.6175 798.53 81.4322C796.17 79.2471 792.766 78.1543 788.326 78.1543C783.64 78.1543 779.922 79.1764 777.173 81.2206C774.459 83.2646 772.627 85.6789 771.672 88.4631L753.804 85.9257C755.213 80.9916 757.541 76.8682 760.783 73.5549C764.025 70.2069 767.992 67.7046 772.678 66.048C777.366 64.3562 782.547 63.5105 788.221 63.5105C792.135 63.5105 796.029 63.9688 799.905 64.8846C803.783 65.801 807.322 67.3166 810.533 69.4316C813.737 71.5107 816.309 74.348 818.248 77.9429C820.221 81.5377 821.211 86.0316 821.211 91.4242V145.771H802.81V134.616H802.179C801.017 136.872 799.375 138.986 797.261 140.96C795.181 142.898 792.556 144.467 789.383 145.665C786.248 146.828 782.564 147.41 778.335 147.41ZM783.305 133.347C787.147 133.347 790.476 132.589 793.297 131.074C796.116 129.523 798.284 127.479 799.8 124.941C801.352 122.404 802.124 119.637 802.124 116.641V107.072C801.526 107.566 800.503 108.024 799.061 108.447C797.65 108.87 796.063 109.24 794.301 109.557C792.539 109.874 790.794 110.156 789.065 110.403C787.341 110.65 785.844 110.861 784.575 111.038C781.718 111.425 779.162 112.06 776.907 112.941C774.655 113.821 772.872 115.055 771.568 116.641C770.265 118.192 769.613 120.201 769.613 122.668C769.613 126.192 770.899 128.853 773.472 130.651C776.044 132.448 779.322 133.347 783.305 133.347ZM904.632 86.0316L887.189 87.9347C886.693 86.1726 885.832 84.516 884.596 82.9652C883.396 81.4145 881.775 80.1631 879.733 79.2116C877.69 78.26 875.187 77.7844 872.227 77.7844C868.244 77.7844 864.895 78.648 862.183 80.3749C859.503 82.1019 858.179 84.3398 858.217 87.089C858.179 89.4503 859.044 91.3711 860.806 92.8511C862.604 94.3316 865.564 95.5474 869.688 96.4989L883.541 99.4596C891.225 101.116 896.933 103.742 900.669 107.337C904.442 110.932 906.343 115.637 906.377 121.452C906.343 126.563 904.846 131.074 901.886 134.986C898.958 138.863 894.888 141.894 889.674 144.079C884.455 146.264 878.463 147.357 871.697 147.357C861.76 147.357 853.758 145.277 847.697 141.119C841.634 136.924 838.019 131.092 836.857 123.62L855.52 121.822C856.368 125.488 858.162 128.254 860.914 130.122C863.663 131.99 867.24 132.924 871.644 132.924C876.194 132.924 879.84 131.99 882.585 130.122C885.373 128.254 886.762 125.946 886.762 123.197C886.762 120.871 885.865 118.95 884.067 117.434C882.305 115.919 879.556 114.756 875.821 113.945L861.97 111.038C854.181 109.416 848.421 106.685 844.682 102.843C840.947 98.9661 839.095 94.0674 839.133 88.1461C839.095 83.1415 840.455 78.8063 843.202 75.1412C845.989 71.4404 849.846 68.5855 854.781 66.5764C859.752 64.5324 865.478 63.5105 871.962 63.5105C881.478 63.5105 888.966 65.5368 894.429 69.5899C899.93 73.6429 903.328 79.1236 904.632 86.0316ZM986.337 86.0316L968.89 87.9347C968.398 86.1726 967.535 84.516 966.301 82.9652C965.103 81.4145 963.482 80.1631 961.438 79.2116C959.396 78.26 956.891 77.7844 953.933 77.7844C949.947 77.7844 946.602 78.648 943.888 80.3749C941.208 82.1019 939.886 84.3398 939.922 87.089C939.886 89.4503 940.749 91.3711 942.512 92.8511C944.309 94.3316 947.272 95.5474 951.394 96.4989L965.244 99.4596C972.926 101.116 978.638 103.742 982.373 107.337C986.143 110.932 988.05 115.637 988.082 121.452C988.05 126.563 986.549 131.074 983.587 134.986C980.663 138.863 976.596 141.894 971.377 144.079C966.162 146.264 960.168 147.357 953.404 147.357C943.463 147.357 935.465 145.277 929.402 141.119C923.339 136.924 919.726 131.092 918.564 123.62L937.227 121.822C938.069 125.488 939.869 128.254 942.619 130.122C945.368 131.99 948.945 132.924 953.349 132.924C957.895 132.924 961.543 131.99 964.293 130.122C967.08 128.254 968.469 125.946 968.469 123.197C968.469 120.871 967.57 118.95 965.773 117.434C964.01 115.919 961.261 114.756 957.526 113.945L943.674 111.038C935.886 109.416 930.122 106.685 926.387 102.843C922.653 98.9661 920.8 94.0674 920.838 88.1461C920.8 83.1415 922.158 78.8063 924.907 75.1412C927.69 71.4404 931.554 68.5855 936.486 66.5764C941.457 64.5324 947.181 63.5105 953.669 63.5105C963.183 63.5105 970.674 65.5368 976.135 69.5899C981.632 73.6429 985.036 79.1236 986.337 86.0316Z" fill="#1E1E1E"/>
<path d="M374.596 220.529V190.454H393.863V195.021H380.044V203.186H392.541V207.753H380.044V220.529H374.596ZM409.017 220.984C407.587 220.984 406.299 220.729 405.154 220.221C404.019 219.701 403.118 218.937 402.453 217.929C401.796 216.92 401.469 215.678 401.469 214.2C401.469 212.927 401.703 211.874 402.173 211.043C402.644 210.21 403.284 209.545 404.097 209.045C404.909 208.546 405.825 208.169 406.844 207.915C407.872 207.65 408.933 207.459 410.029 207.342C411.352 207.205 412.423 207.082 413.246 206.975C414.067 206.857 414.665 206.681 415.038 206.446C415.419 206.201 415.611 205.824 415.611 205.315V205.227C415.611 204.121 415.282 203.264 414.627 202.657C413.971 202.05 413.025 201.747 411.792 201.747C410.491 201.747 409.457 202.031 408.693 202.599C407.939 203.167 407.432 203.837 407.166 204.611L402.202 203.905C402.594 202.535 403.24 201.389 404.141 200.469C405.042 199.539 406.143 198.844 407.446 198.384C408.747 197.914 410.187 197.679 411.762 197.679C412.851 197.679 413.931 197.806 415.008 198.061C416.084 198.315 417.069 198.736 417.96 199.324C418.851 199.901 419.566 200.689 420.103 201.688C420.653 202.687 420.926 203.935 420.926 205.433V220.529H415.815V217.43H415.64C415.316 218.057 414.861 218.645 414.274 219.192C413.697 219.731 412.966 220.167 412.086 220.499C411.215 220.824 410.192 220.984 409.017 220.984ZM410.398 217.078C411.463 217.078 412.389 216.868 413.173 216.447C413.956 216.015 414.558 215.449 414.979 214.744C415.411 214.038 415.625 213.27 415.625 212.438V209.78C415.459 209.917 415.175 210.044 414.773 210.161C414.381 210.279 413.941 210.382 413.453 210.47C412.962 210.558 412.478 210.636 411.998 210.705C411.518 210.773 411.101 210.832 410.749 210.88C409.956 210.988 409.246 211.165 408.621 211.409C407.994 211.655 407.499 211.996 407.137 212.438C406.775 212.868 406.594 213.426 406.594 214.112C406.594 215.091 406.952 215.83 407.665 216.329C408.381 216.828 409.291 217.078 410.398 217.078ZM430.642 220.529V190.454H435.958V201.703H436.179C436.453 201.155 436.84 200.572 437.339 199.955C437.838 199.328 438.514 198.795 439.364 198.355C440.217 197.904 441.303 197.679 442.625 197.679C444.368 197.679 445.939 198.124 447.339 199.015C448.749 199.897 449.865 201.203 450.686 202.936C451.52 204.659 451.935 206.774 451.935 209.28C451.935 211.756 451.528 213.861 450.716 215.594C449.903 217.329 448.798 218.649 447.398 219.56C445.998 220.47 444.413 220.925 442.64 220.925C441.347 220.925 440.276 220.71 439.423 220.278C438.573 219.849 437.886 219.329 437.368 218.723C436.859 218.106 436.463 217.523 436.179 216.975H435.869V220.529H430.642ZM435.855 209.251C435.855 210.71 436.061 211.988 436.472 213.085C436.893 214.179 437.495 215.036 438.278 215.653C439.072 216.261 440.032 216.565 441.156 216.565C442.331 216.565 443.316 216.251 444.107 215.624C444.901 214.988 445.499 214.12 445.899 213.026C446.312 211.918 446.516 210.66 446.516 209.251C446.516 207.851 446.316 206.608 445.914 205.521C445.514 204.434 444.916 203.583 444.122 202.965C443.331 202.349 442.341 202.04 441.156 202.04C440.021 202.04 439.057 202.339 438.263 202.936C437.469 203.534 436.867 204.371 436.457 205.448C436.055 206.524 435.855 207.792 435.855 209.251ZM460.589 220.529V197.973H465.745V201.732H465.979C466.392 200.43 467.095 199.427 468.095 198.722C469.103 198.007 470.253 197.649 471.545 197.649C471.838 197.649 472.166 197.664 472.528 197.694C472.901 197.713 473.211 197.748 473.455 197.796V202.687C473.229 202.608 472.872 202.54 472.383 202.481C471.903 202.413 471.438 202.378 470.987 202.378C470.019 202.378 469.147 202.589 468.373 203.01C467.611 203.421 467.008 203.993 466.566 204.728C466.126 205.462 465.905 206.309 465.905 207.268V220.529H460.589ZM481.122 220.529V197.973H486.438V220.529H481.122ZM483.794 194.771C482.952 194.771 482.227 194.492 481.621 193.934C481.015 193.367 480.709 192.686 480.709 191.893C480.709 191.091 481.015 190.41 481.621 189.852C482.227 189.284 482.952 189 483.794 189C484.646 189 485.371 189.284 485.968 189.852C486.575 190.41 486.878 191.091 486.878 191.893C486.878 192.686 486.575 193.367 485.968 193.934C485.371 194.492 484.646 194.771 483.794 194.771ZM505.878 220.969C503.627 220.969 501.693 220.476 500.078 219.487C498.472 218.497 497.234 217.131 496.362 215.39C495.501 213.636 495.069 211.619 495.069 209.339C495.069 207.048 495.512 205.027 496.392 203.274C497.274 201.512 498.516 200.141 500.122 199.162C501.737 198.173 503.646 197.679 505.848 197.679C507.68 197.679 509.301 198.017 510.709 198.692C512.128 199.358 513.261 200.303 514.101 201.526C514.943 202.74 515.423 204.16 515.541 205.785H510.459C510.255 204.699 509.764 203.793 508.992 203.068C508.227 202.334 507.204 201.967 505.922 201.967C504.836 201.967 503.882 202.261 503.059 202.848C502.236 203.426 501.596 204.258 501.135 205.345C500.684 206.431 500.459 207.733 500.459 209.251C500.459 210.788 500.684 212.11 501.135 213.215C501.585 214.312 502.217 215.158 503.029 215.756C503.853 216.344 504.817 216.638 505.922 216.638C506.705 216.638 507.406 216.491 508.023 216.196C508.648 215.893 509.173 215.457 509.594 214.891C510.015 214.323 510.303 213.632 510.459 212.819H515.541C515.415 214.415 514.943 215.83 514.131 217.064C513.318 218.287 512.213 219.247 510.813 219.941C509.413 220.628 507.768 220.969 505.878 220.969ZM530.533 220.984C529.103 220.984 527.817 220.729 526.669 220.221C525.535 219.701 524.634 218.937 523.968 217.929C523.312 216.92 522.985 215.678 522.985 214.2C522.985 212.927 523.219 211.874 523.688 211.043C524.16 210.21 524.8 209.545 525.613 209.045C526.425 208.546 527.341 208.169 528.36 207.915C529.387 207.65 530.448 207.459 531.545 207.342C532.867 207.205 533.939 207.082 534.762 206.975C535.585 206.857 536.181 206.681 536.554 206.446C536.935 206.201 537.126 205.824 537.126 205.315V205.227C537.126 204.121 536.798 203.264 536.141 202.657C535.486 202.05 534.541 201.747 533.307 201.747C532.006 201.747 530.973 202.031 530.211 202.599C529.455 203.167 528.947 203.837 528.682 204.611L523.718 203.905C524.109 202.535 524.756 201.389 525.657 200.469C526.558 199.539 527.659 198.844 528.962 198.384C530.263 197.914 531.703 197.679 533.278 197.679C534.366 197.679 535.446 197.806 536.524 198.061C537.6 198.315 538.585 198.736 539.476 199.324C540.366 199.901 541.082 200.689 541.619 201.688C542.168 202.687 542.442 203.935 542.442 205.433V220.529H537.333V217.43H537.156C536.832 218.057 536.377 218.645 535.789 219.192C535.213 219.731 534.482 220.167 533.602 220.499C532.731 220.824 531.707 220.984 530.533 220.984ZM531.914 217.078C532.981 217.078 533.905 216.868 534.688 216.447C535.472 216.015 536.074 215.449 536.495 214.744C536.926 214.038 537.141 213.27 537.141 212.438V209.78C536.975 209.917 536.691 210.044 536.288 210.161C535.897 210.279 535.457 210.382 534.968 210.47C534.478 210.558 533.994 210.636 533.514 210.705C533.034 210.773 532.619 210.832 532.265 210.88C531.472 210.988 530.762 211.165 530.137 211.409C529.509 211.655 529.015 211.996 528.653 212.438C528.291 212.868 528.109 213.426 528.109 214.112C528.109 215.091 528.467 215.83 529.181 216.329C529.897 216.828 530.806 217.078 531.914 217.078ZM563.187 197.973V202.085H550.219V197.973H563.187ZM553.421 192.568H558.737V213.746C558.737 214.459 558.844 215.007 559.059 215.39C559.284 215.76 559.579 216.015 559.941 216.154C560.303 216.291 560.705 216.358 561.145 216.358C561.478 216.358 561.781 216.335 562.055 216.285C562.339 216.236 562.556 216.192 562.701 216.154L563.598 220.308C563.314 220.407 562.907 220.514 562.379 220.632C561.859 220.75 561.223 220.817 560.469 220.838C559.139 220.876 557.939 220.676 556.872 220.236C555.804 219.786 554.958 219.091 554.331 218.15C553.714 217.211 553.411 216.036 553.421 214.626V192.568ZM571.768 220.529V197.973H577.084V220.529H571.768ZM574.44 194.771C573.598 194.771 572.874 194.492 572.267 193.934C571.661 193.367 571.356 192.686 571.356 191.893C571.356 191.091 571.661 190.41 572.267 189.852C572.874 189.284 573.598 189 574.44 189C575.293 189 576.017 189.284 576.615 189.852C577.221 190.41 577.524 191.091 577.524 191.893C577.524 192.686 577.221 193.367 576.615 193.934C576.017 194.492 575.293 194.771 574.44 194.771ZM596.524 220.969C594.322 220.969 592.413 220.485 590.798 219.516C589.181 218.546 587.928 217.19 587.038 215.449C586.158 213.706 585.716 211.67 585.716 209.339C585.716 207.009 586.158 204.968 587.038 203.215C587.928 201.463 589.181 200.102 590.798 199.133C592.413 198.164 594.322 197.679 596.524 197.679C598.728 197.679 600.636 198.164 602.253 199.133C603.867 200.102 605.116 201.463 605.996 203.215C606.888 204.968 607.333 207.009 607.333 209.339C607.333 211.67 606.888 213.706 605.996 215.449C605.116 217.19 603.867 218.546 602.253 219.516C600.636 220.485 598.728 220.969 596.524 220.969ZM596.554 216.71C597.747 216.71 598.747 216.384 599.549 215.727C600.354 215.061 600.949 214.171 601.341 213.055C601.743 211.939 601.943 210.695 601.943 209.324C601.943 207.944 601.743 206.696 601.341 205.579C600.949 204.454 600.354 203.558 599.549 202.892C598.747 202.227 597.747 201.894 596.554 201.894C595.331 201.894 594.312 202.227 593.499 202.892C592.697 203.558 592.095 204.454 591.693 205.579C591.301 206.696 591.105 207.944 591.105 209.324C591.105 210.695 591.301 211.939 591.693 213.055C592.095 214.171 592.697 215.061 593.499 215.727C594.312 216.384 595.331 216.71 596.554 216.71ZM621.295 207.313V220.529H615.981V197.973H621.059V201.805H621.324C621.846 200.543 622.672 199.539 623.806 198.795C624.952 198.051 626.368 197.679 628.053 197.679C629.606 197.679 630.964 198.012 632.118 198.677C633.284 199.343 634.185 200.308 634.821 201.571C635.467 202.833 635.785 204.366 635.777 206.167V220.529H630.459V206.989C630.459 205.482 630.067 204.302 629.284 203.45C628.512 202.599 627.44 202.173 626.067 202.173C625.137 202.173 624.309 202.378 623.585 202.789C622.872 203.191 622.309 203.773 621.899 204.537C621.499 205.301 621.295 206.226 621.295 207.313ZM659.943 220.529V190.454H671.221C673.533 190.454 675.472 190.884 677.036 191.746C678.611 192.608 679.802 193.792 680.604 195.3C681.419 196.798 681.825 198.501 681.825 200.41C681.825 202.339 681.419 204.052 680.604 205.55C679.794 207.048 678.594 208.228 677.006 209.089C675.423 209.941 673.467 210.367 671.147 210.367H663.674V205.888H670.415C671.762 205.888 672.872 205.653 673.731 205.183C674.596 204.713 675.232 204.067 675.642 203.245C676.063 202.422 676.274 201.478 676.274 200.41C676.274 199.343 676.063 198.403 675.642 197.591C675.232 196.778 674.587 196.147 673.72 195.696C672.855 195.237 671.747 195.006 670.385 195.006H665.389V220.529H659.943ZM710.606 197.973L702.571 220.529H696.699L688.663 197.973H694.333L699.52 214.729H699.752L704.949 197.973H710.606ZM729.682 197.973V202.085H716.714V197.973H729.682ZM719.916 192.568H725.234V213.746C725.234 214.459 725.341 215.007 725.556 215.39C725.783 215.76 726.076 216.015 726.436 216.154C726.8 216.291 727.202 216.358 727.64 216.358C727.975 216.358 728.276 216.335 728.549 216.285C728.834 216.236 729.05 216.192 729.198 216.154L730.093 220.308C729.811 220.407 729.402 220.514 728.876 220.632C728.356 220.75 727.718 220.817 726.966 220.838C725.634 220.876 724.436 220.676 723.368 220.236C722.301 219.786 721.453 219.091 720.829 218.15C720.208 217.211 719.907 216.036 719.916 214.626V192.568ZM752.89 220.529V190.454H758.341V215.963H771.585V220.529H752.89ZM790.552 197.973V202.085H777.583V197.973H790.552ZM780.783 192.568H786.101V213.746C786.101 214.459 786.208 215.007 786.423 215.39C786.646 215.76 786.941 216.015 787.305 216.154C787.663 216.291 788.069 216.358 788.507 216.358C788.842 216.358 789.145 216.335 789.417 216.285C789.703 216.236 789.918 216.192 790.063 216.154L790.96 220.308C790.674 220.407 790.269 220.514 789.741 220.632C789.223 220.75 788.585 220.817 787.834 220.838C786.501 220.876 785.303 220.676 784.236 220.236C783.168 219.786 782.322 219.091 781.693 218.15C781.076 217.211 780.775 216.036 780.783 214.626V192.568ZM807.257 220.925C805.486 220.925 803.899 220.47 802.501 219.56C801.099 218.649 799.996 217.329 799.181 215.594C798.37 213.861 797.96 211.756 797.96 209.28C797.96 206.774 798.375 204.659 799.198 202.936C800.029 201.203 801.149 199.897 802.56 199.015C803.971 198.124 805.541 197.679 807.274 197.679C808.598 197.679 809.68 197.904 810.533 198.355C811.385 198.795 812.063 199.328 812.558 199.955C813.059 200.572 813.448 201.155 813.72 201.703H813.939V190.454H819.269V220.529H814.044V216.975H813.72C813.448 217.523 813.05 218.106 812.53 218.723C812.013 219.329 811.326 219.849 810.474 220.278C809.623 220.71 808.552 220.925 807.257 220.925ZM808.741 216.565C809.867 216.565 810.825 216.261 811.621 215.653C812.415 215.036 813.013 214.179 813.427 213.085C813.836 211.988 814.044 210.71 814.044 209.251C814.044 207.792 813.836 206.524 813.427 205.448C813.025 204.371 812.427 203.534 811.636 202.936C810.851 202.339 809.888 202.04 808.741 202.04C807.56 202.04 806.566 202.349 805.777 202.965C804.983 203.583 804.387 204.434 803.983 205.521C803.581 206.608 803.383 207.851 803.383 209.251C803.383 210.66 803.581 211.918 803.983 213.026C804.396 214.12 804.996 214.988 805.789 215.624C806.592 216.251 807.575 216.565 808.741 216.565Z" fill="#1E1E1E"/>
<path d="M235.076 205H330.187" stroke="#1E1E1E" stroke-width="5"/>
<path d="M863.648 205H958.76" stroke="#1E1E1E" stroke-width="5"/>
</svg>
