<svg width="64" height="64" viewBox="0 0 64 64" fill="none" xmlns="http://www.w3.org/2000/svg">
<g clip-path="url(#clip0_4_21)">
<path fill-rule="evenodd" clip-rule="evenodd" d="M56 16.2909L24.5818 0V63.7091L56 48.2909V16.2909ZM27.7818 33.4545H39.1272V53.2364L27.7818 58.4727V33.4545ZM42.6182 50.9091V33.4545H52.5091V46.2545L42.6182 50.9091ZM42.6182 13.0909L52.5091 18.0364V29.9636H42.6182V13.0909ZM39.1272 10.7636L27.7818 5.23636V29.9636H39.1272V10.7636Z" fill="#3D68FE" stroke="#3D68FE" stroke-width="2"/>
<path d="M8 63.7091V0L38.2545 15.7091L11.2 5.81818V58.7636L38.2545 48.5818L8 63.7091Z" fill="#3D68FE" stroke="#3D68FE" stroke-width="3"/>
<path d="M15.2727 34.3272C16.3973 34.3272 17.3091 33.4155 17.3091 32.2909C17.3091 31.1662 16.3973 30.2545 15.2727 30.2545C14.148 30.2545 13.2363 31.1662 13.2363 32.2909C13.2363 33.4155 14.148 34.3272 15.2727 34.3272Z" fill="#3D68FE" stroke="#3D68FE" stroke-width="3"/>
</g>
<defs>
<clipPath id="clip0_4_21">
<rect width="48.2909" height="64" fill="white" transform="translate(8)"/>
</clipPath>
</defs>
</svg>
