<svg width="7" height="12" viewBox="0 0 7 12" fill="none" xmlns="http://www.w3.org/2000/svg">
<path d="M2.78982 5.99995L6.32982 2.45995C6.51607 2.27259 6.62061 2.01913 6.62061 1.75495C6.62061 1.49076 6.51607 1.23731 6.32982 1.04995C6.23686 0.95622 6.12626 0.881826 6.0044 0.831057C5.88254 0.780288 5.75183 0.75415 5.61982 0.75415C5.48781 0.75415 5.3571 0.780288 5.23524 0.831057C5.11339 0.881826 5.00278 0.95622 4.90982 1.04995L0.669822 5.28995C0.576093 5.38291 0.501699 5.49351 0.450931 5.61537C0.400162 5.73723 0.374023 5.86794 0.374023 5.99995C0.374023 6.13196 0.400162 6.26267 0.450931 6.38453C0.501699 6.50638 0.576093 6.61699 0.669822 6.70995L4.90982 10.9999C5.00326 11.0926 5.11408 11.166 5.23592 11.2157C5.35775 11.2655 5.48821 11.2907 5.61982 11.2899C5.75143 11.2907 5.88189 11.2655 6.00373 11.2157C6.12557 11.166 6.23638 11.0926 6.32982 10.9999C6.51607 10.8126 6.62061 10.5591 6.62061 10.2949C6.62061 10.0308 6.51607 9.77731 6.32982 9.58995L2.78982 5.99995Z" fill="#BBC3CF"/>
</svg>
