<svg width="7" height="12" viewBox="0 0 7 12" fill="none" xmlns="http://www.w3.org/2000/svg">
<path d="M4.21018 6.00005L0.670178 9.54005C0.483927 9.72741 0.379386 9.98087 0.379386 10.2451C0.379386 10.5092 0.483927 10.7627 0.670178 10.9501C0.763142 11.0438 0.873743 11.1182 0.995602 11.1689C1.11746 11.2197 1.24817 11.2459 1.38018 11.2459C1.51219 11.2459 1.6429 11.2197 1.76476 11.1689C1.88661 11.1182 1.99722 11.0438 2.09018 10.9501L6.33018 6.71005C6.42391 6.61709 6.4983 6.50649 6.54907 6.38463C6.59984 6.26277 6.62598 6.13206 6.62598 6.00005C6.62598 5.86804 6.59984 5.73733 6.54907 5.61547C6.4983 5.49362 6.42391 5.38301 6.33018 5.29005L2.09018 1.00005C1.99674 0.907371 1.88592 0.834046 1.76408 0.784281C1.64225 0.734517 1.51178 0.70929 1.38018 0.710051C1.24857 0.70929 1.11811 0.734517 0.996271 0.784281C0.874434 0.834046 0.763618 0.907371 0.670178 1.00005C0.483926 1.18741 0.379385 1.44087 0.379385 1.70505C0.379385 1.96924 0.483926 2.22269 0.670178 2.41005L4.21018 6.00005Z" fill="#BBC3CF"/>
</svg>
