<svg width="21" height="13" viewBox="0 0 21 13" fill="none" xmlns="http://www.w3.org/2000/svg">
<path fill-rule="evenodd" clip-rule="evenodd" d="M13.2681 12.7273C13.1816 12.641 13.1131 12.5386 13.0663 12.4258C13.0195 12.313 12.9954 12.1921 12.9954 12.07C12.9954 11.9479 13.0195 11.8269 13.0663 11.7142C13.1131 11.6014 13.1816 11.4989 13.2681 11.4127L18.1829 6.49976L13.2681 1.58683C13.0938 1.4125 12.9958 1.17607 12.9958 0.929542C12.9958 0.683012 13.0938 0.446579 13.2681 0.272256C13.4424 0.0979328 13.6789 -2.98767e-08 13.9254 -4.06528e-08C14.1719 -5.1429e-08 14.4084 0.0979328 14.5827 0.272256L20.1529 5.84247C20.2393 5.92871 20.3079 6.03116 20.3547 6.14394C20.4015 6.25673 20.4256 6.37764 20.4256 6.49976C20.4256 6.62187 20.4015 6.74278 20.3547 6.85557C20.3079 6.96836 20.2393 7.0708 20.1529 7.15704L14.5827 12.7273C14.4964 12.8137 14.394 12.8823 14.2812 12.9291C14.1684 12.9759 14.0475 13 13.9254 13C13.8033 13 13.6824 12.9759 13.5696 12.9291C13.4568 12.8823 13.3543 12.8137 13.2681 12.7273Z" fill="white"/>
<path fill-rule="evenodd" clip-rule="evenodd" d="M-4.05803e-08 6.49985C-5.13429e-08 6.25363 0.0978102 6.0175 0.271913 5.8434C0.446016 5.66929 0.68215 5.57148 0.928369 5.57148L17.639 5.57148C17.8852 5.57148 18.1214 5.66929 18.2955 5.8434C18.4696 6.0175 18.5674 6.25363 18.5674 6.49985C18.5674 6.74607 18.4696 6.98221 18.2955 7.15631C18.1214 7.33041 17.8852 7.42822 17.639 7.42822L0.928369 7.42822C0.68215 7.42822 0.446016 7.33041 0.271913 7.15631C0.0978102 6.98221 -2.98177e-08 6.74607 -4.05803e-08 6.49985Z" fill="white"/>
</svg>
