<svg width="16" height="16" viewBox="0 0 16 16" fill="none" xmlns="http://www.w3.org/2000/svg">
<path d="M8.00356 3.95703C5.73213 3.95703 3.89999 5.76055 3.89999 7.99648C3.89999 10.2324 5.73213 12.0359 8.00356 12.0359C10.275 12.0359 12.1071 10.2324 12.1071 7.99648C12.1071 5.76055 10.275 3.95703 8.00356 3.95703ZM8.00356 10.6227C6.5357 10.6227 5.3357 9.44492 5.3357 7.99648C5.3357 6.54805 6.53213 5.37031 8.00356 5.37031C9.47499 5.37031 10.6714 6.54805 10.6714 7.99648C10.6714 9.44492 9.47142 10.6227 8.00356 10.6227ZM13.2321 3.7918C13.2321 4.31563 12.8036 4.73399 12.275 4.73399C11.7428 4.73399 11.3178 4.31211 11.3178 3.7918C11.3178 3.27149 11.7464 2.84961 12.275 2.84961C12.8036 2.84961 13.2321 3.27149 13.2321 3.7918ZM15.95 4.74805C15.8893 3.48594 15.5964 2.36797 14.6571 1.44688C13.7214 0.525784 12.5857 0.237503 11.3036 0.174222C9.98213 0.100394 6.02142 0.100394 4.69999 0.174222C3.42142 0.233987 2.28571 0.522268 1.34642 1.44336C0.407136 2.36445 0.11785 3.48242 0.0535644 4.74453C-0.0214355 6.04531 -0.0214355 9.94414 0.0535644 11.2449C0.114279 12.507 0.407136 13.625 1.34642 14.5461C2.28571 15.4672 3.41785 15.7555 4.69999 15.8187C6.02142 15.8926 9.98213 15.8926 11.3036 15.8187C12.5857 15.759 13.7214 15.4707 14.6571 14.5461C15.5928 13.625 15.8857 12.507 15.95 11.2449C16.025 9.94414 16.025 6.04883 15.95 4.74805ZM14.2428 12.6406C13.9643 13.3297 13.425 13.8605 12.7214 14.1383C11.6678 14.5496 9.16784 14.4547 8.00356 14.4547C6.83927 14.4547 4.3357 14.5461 3.2857 14.1383C2.58571 13.8641 2.04642 13.3332 1.76428 12.6406C1.34642 11.6035 1.44285 9.14258 1.44285 7.99648C1.44285 6.85039 1.34999 4.38594 1.76428 3.35234C2.04285 2.66328 2.58213 2.13242 3.2857 1.85469C4.33928 1.44336 6.83927 1.53828 8.00356 1.53828C9.16784 1.53828 11.6714 1.44688 12.7214 1.85469C13.4214 2.12891 13.9607 2.65977 14.2428 3.35234C14.6607 4.38945 14.5643 6.85039 14.5643 7.99648C14.5643 9.14258 14.6607 11.607 14.2428 12.6406Z" fill="white"/>
</svg>
