<svg width="25" height="25" viewBox="0 0 25 25" fill="none" xmlns="http://www.w3.org/2000/svg">
<path d="M12.3845 13.6848C14.0414 13.6848 15.3845 12.3417 15.3845 10.6848C15.3845 9.02796 14.0414 7.68481 12.3845 7.68481C10.7277 7.68481 9.38452 9.02796 9.38452 10.6848C9.38452 12.3417 10.7277 13.6848 12.3845 13.6848Z" stroke="#AE7D3B" stroke-width="1.5" stroke-linecap="round" stroke-linejoin="round"/>
<path d="M19.8845 10.6848C19.8845 17.4348 12.3845 22.6848 12.3845 22.6848C12.3845 22.6848 4.88452 17.4348 4.88452 10.6848C4.88452 8.69569 5.6747 6.78804 7.08122 5.38151C8.48774 3.97499 10.3954 3.18481 12.3845 3.18481C14.3736 3.18481 16.2813 3.97499 17.6878 5.38151C19.0943 6.78804 19.8845 8.69569 19.8845 10.6848V10.6848Z" stroke="#AE7D3B" stroke-width="1.5" stroke-linecap="round" stroke-linejoin="round"/>
</svg>
