<svg width="18" height="14" viewBox="0 0 18 14" fill="none" xmlns="http://www.w3.org/2000/svg">
<path d="M17.9998 1.70478C17.3257 1.98925 16.6108 2.17598 15.8787 2.25875C16.6412 1.82335 17.2267 1.13386 17.5024 0.312353C16.7776 0.722161 15.9845 1.0109 15.1574 1.16608C14.4838 0.482363 13.5241 0.0550613 12.4619 0.0550613C10.4224 0.0550613 8.76885 1.6303 8.76885 3.57315C8.76885 3.84893 8.80155 4.1174 8.86447 4.37496C5.79533 4.2282 3.07424 2.8276 1.25279 0.699061C0.934982 1.21867 0.752873 1.82308 0.752873 2.46775C0.752873 3.68836 1.40488 4.76515 2.39572 5.39609C1.80928 5.37859 1.23574 5.2277 0.72299 4.956C0.722779 4.97073 0.722779 4.98547 0.722779 5.00027C0.722779 6.70486 1.99572 8.12683 3.68504 8.45003C3.14124 8.59093 2.57082 8.61155 2.01737 8.51032C2.48727 9.90804 3.85112 10.9252 5.46705 10.9536C4.20318 11.8972 2.61081 12.4597 0.880701 12.4597C0.582576 12.4597 0.28867 12.443 -0.000244141 12.4105C1.63403 13.4087 3.57515 13.9911 5.66062 13.9911C12.4533 13.9911 16.1677 8.63023 16.1677 3.98116C16.1677 3.82856 16.1642 3.67684 16.157 3.52599C16.88 3.02807 17.504 2.41136 17.9998 1.70478Z" fill="white"/>
</svg>
